<svg transform="scale(1)" version="1.1" id="Layer_1" xmlns="http://www.w3.org/2000/svg" xmlns:xlink="http://www.w3.org/1999/xlink" x="0px" y="0px" viewBox="0 0 500 500" xml:space="preserve" class="show_show__wrapper__graphic__5Waiy "><title>React</title><style type="text/css">
	.st0{fill:#FFB7A6;}
	.st1{opacity:0.63;fill:url(#SVGID_1_);enable-background:new    ;}
	.st2{fill:#124577;}
	.st3{fill:#E04F4F;}
	.st4{fill:#8CCC00;}
	.st5{opacity:0.63;fill:url(#SVGID_00000047739150462737027700000003903581881466682252_);enable-background:new    ;}
	.st6{fill:#FFB72F;}
	.st7{opacity:0.1;fill:#124577;enable-background:new    ;}
	.st8{opacity:0.4;fill:#FFE5D0;enable-background:new    ;}
	.st9{fill:#FFE5D0;}
	.st10{fill:#68E1FD;}
	.st11{opacity:0.63;fill:url(#SVGID_00000134946090770182607040000001347346246456324753_);enable-background:new    ;}
	.st12{fill:#F29D40;}
	.st13{opacity:0.4;fill:#124577;enable-background:new    ;}
	.st14{opacity:0.3;fill:#E04F4F;enable-background:new    ;}
	.st15{opacity:0.4;fill:#E04F4F;enable-background:new    ;}
	.st16{fill:#FFA364;}
	.st17{opacity:0.63;fill:url(#SVGID_00000013885218849674911770000006462679994806049429_);enable-background:new    ;}
</style><path class="st0" id="field" d="M243,432.1L21.9,301.5c-7-4-13.1-10.5-6.2-14.7l221.9-127.9c3.3-2.1,8.4-3.4,11.8-1.4l232.1,134.7
	c7,4.1,8.3,15.5,1.3,19.6L272.1,431.9C263.1,437.1,252.1,437.2,243,432.1z"></path><g id="plant"><linearGradient id="SVGID_1_" gradientUnits="userSpaceOnUse" x1="404.0649" y1="177.5876" x2="408.1349" y2="185.9376" gradientTransform="matrix(1 0 0 -1 0 502)"><stop offset="0" style="stop-color: rgb(255, 183, 166); stop-opacity: 0;"></stop><stop offset="1" style="stop-color: rgb(224, 79, 79);"></stop></linearGradient><path class="st1" d="M407.9,302.8c-6.7,5.2-13.6,10-20.7,14.8l17.4,10.2l26.2-16.5L407.9,302.8z"></path><path class="st2" d="M401.4,277.7c0,0-3.6,30.7,12.7,36.7s25-9.5,25.2-36.7"></path><ellipse class="st3" cx="420.3" cy="277.7" rx="19" ry="11"></ellipse><path class="st4" d="M425.2,253.3c0,0-7.4-10.7-4.2-18.2c0,0,2.7-4.8,6.5-5.5c0,0-0.4,10.2,3.4,8.9s0-10.6,0-10.6s4-5.4,8.3-5.2
		s0,9.5,3,8s0.2-9.5,3.6-10.5c3.1-0.7,6.3-1.2,9.5-1.5c0,0,3.2,9.3,0,10.6s-8,1.8-5.7,3.8s8.7-0.3,8.7-0.3s0.4,5.2-1.8,7.5
		s-15.1-2.7-12.8,1.8s10.8,2.2,10.8,2.2s-4.4,6.2-9.5,9.1C439.9,256.2,425.2,253.3,425.2,253.3z"></path><path class="st4" d="M426.9,280.2c0,0-5.4-5.3-4.3-9.9c0,0,1-3,3.1-3.8c0,0,0.9,5.8,2.9,4.7s-1.1-6-1.1-6s1.7-3.5,4.2-3.9
		s1,5.4,2.6,4.2s-0.9-5.4,0.9-6.3c1.7-0.7,3.4-1.4,5.2-1.9c0,0,2.8,4.9,1.1,6s-4.3,1.9-2.8,2.8s4.9-1.1,4.9-1.1s0.8,2.9-0.2,4.4
		s-8.9,0-7.1,2.4s6.4,0.1,6.4,0.1c-1.1,2.3-2.6,4.4-4.4,6.2C435.6,280.2,426.9,280.2,426.9,280.2z"></path><path class="st4" d="M407.1,268.7c0,0-13.1,0.5-17.6-6.2c0,0-2.6-4.8-1.2-8.4c0,0,8.4,5.8,9.3,1.9s-9-5.7-9-5.7s-2.4-6.2,0.1-9.8
		s8,5.1,8.4,1.7s-7.9-5.3-6.9-8.6c1.1-3,2.4-6,3.8-8.8c0,0,9.6,2.3,9,5.7s-2.8,7.7,0.2,6.9s4.4-7.5,4.4-7.5s4.6,2.5,5.4,5.5
		s-10.4,11.2-5.4,11.7s7.7-7.9,7.7-7.9s2.9,7,2.6,12.9C417.5,257.8,407.1,268.7,407.1,268.7z"></path><path class="st2" d="M452.5,222.7c-1.4,1.2-2.8,2.4-4.2,3.6c0.1-1.5,0.3-3,0.5-4.4c0.1-0.8-1.1-1.1-1.2-0.3c-0.3,2-0.5,3.9-0.7,5.9
		c-3.7,3.2-7.3,6.6-10.7,10.1c-0.3-2.5-0.4-5-0.2-7.5c0-0.8-1.2-0.8-1.2,0c-0.2,2.9,0,5.8,0.4,8.7c-2.2,2.3-4.2,4.8-6.1,7.3
		c-2.1-2.9-3.6-6.3-4.2-9.9c-0.1-0.8-1.3-0.4-1.2,0.3c0.7,3.8,2.3,7.3,4.6,10.4c0,0,0.1,0.1,0.1,0.1c-5.4,7.7-9.2,16.3-9.5,26.3
		c0,0.3,0.4,0.6,0.7,0.5c0.3,0,0.5-0.3,0.5-0.5c0.3-9.6,3.9-18,9.1-25.4c5,1.3,10.1,1.8,15.3,1.5c0.8-0.1,0.8-1.3,0-1.2
		c-4.9,0.3-9.8-0.1-14.5-1.3c2.6-3.5,5.5-6.9,8.6-10c0,0,0.1,0,0.1,0c2.9,0.3,5.8,0.5,8.6,0.6c1.9,0.1,3.7,0.2,5.4-0.6
		c0.7-0.4,0.1-1.4-0.6-1.1c-2,1-4.8,0.5-6.9,0.4c-1.8-0.1-3.7-0.3-5.5-0.4c4.4-4.4,9.1-8.4,13.7-12.3
		C454,223.1,453.1,222.2,452.5,222.7z"></path><path class="st2" d="M414.2,246.7c0.1-0.3-0.1-0.7-0.4-0.8c-0.3-0.1-0.7,0.1-0.8,0.4l0,0c-1.3,4.6-4.1,8.5-7.9,11.4
		c-1.4-3.9-2.7-7.8-3.8-11.8c3-3,5.4-6.4,7.2-10.2c0.3-0.7-0.7-1.3-1.1-0.6c-1.7,3.5-3.9,6.7-6.6,9.5c-1.3-4.5-2.4-9.1-3.4-13.8
		c-0.2-0.8-1.4-0.4-1.2,0.3c1.3,6.3,2.9,12.6,4.9,18.7c-2.3-0.5-4.6-1.2-6.7-2.2c-0.7-0.3-1.3,0.7-0.6,1.1c2.5,1.2,5.1,2,7.8,2.5
		l0,0c1.3,4.1,2.8,8.1,4.3,12c-3.7-0.1-7.3-0.9-10.7-2.3c-0.7-0.3-1.4,0.8-0.6,1.1c3.7,1.6,7.8,2.5,11.8,2.5c2,4.9,4.2,9.8,6.5,14.6
		c0.4,0.7,1.4,0.1,1.1-0.6c-3.2-6.4-6-12.9-8.5-19.6l0,0C409.7,256,412.8,251.7,414.2,246.7z"></path><path class="st2" d="M436.6,262.7l-3.4,5.7c-0.4-0.6-0.8-1.2-1.1-1.8c-0.3-0.7-1.4-0.1-1.1,0.6c0.4,0.8,0.9,1.6,1.4,2.2l0,0
		c-1.2,2.1-2.5,4.1-3.7,6.2c-0.4-0.4-0.7-0.9-0.8-1.5c-0.1-0.8-1.3-0.8-1.2,0c0.1,1,0.6,1.9,1.4,2.5c-1.5,2.6-3.1,5.1-4.6,7.7
		c-0.2,0.3-0.1,0.7,0.2,0.9s0.7,0.1,0.9-0.2c2-3.4,4-6.8,6.1-10.2c1,0,2-0.1,3-0.5c0.8-0.2,0.4-1.4-0.3-1.2
		c-0.6,0.2-1.3,0.3-1.9,0.4l6.1-10.3c0.1-0.3-0.1-0.7-0.5-0.7C436.9,262.5,436.7,262.6,436.6,262.7z"></path></g><g id="box"><linearGradient id="SVGID_00000112602458124915798730000001573841727889009560_" gradientUnits="userSpaceOnUse" x1="106.2231" y1="220.0569" x2="138.7231" y2="251.8369" gradientTransform="matrix(1 0 0 -1 0 502)"><stop offset="0" style="stop-color: rgb(255, 183, 166); stop-opacity: 0;"></stop><stop offset="1" style="stop-color: rgb(224, 79, 79);"></stop></linearGradient><polyline points="
		188.5,248.6 73.7,316.5 41.8,297.8 123.7,249.7 	" style="opacity: 0.63; fill: url(&quot;#SVGID_00000112602458124915798730000001573841727889009560_&quot;);"></polyline><path class="st6" d="M155.7,267.2v-36.7l32.9-18.4v36.4L155.7,267.2z"></path><path class="st7" d="M155.7,267.2v-36.7l32.9-18.4v36.4L155.7,267.2z"></path><path class="st6" d="M155.7,230.5l-32-18.4c0,0-0.9,37,0,37.6s32,17.5,32,17.5V230.5z"></path><polygon class="st6" points="123.7,212.1 155.7,192.6 188.5,212.1 155.7,230.5 	"></polygon><polygon class="st8" points="123.7,212.1 155.7,192.6 188.5,212.1 155.7,230.5 	"></polygon><polygon class="st9" points="135.9,204.7 169.2,223 169.2,242.1 178.7,237.3 178.7,217.6 145.5,198.9 	"></polygon></g><g id="wifi"><path class="st10" d="M92.8,187.4c2.1-1.1,4.2-1.1,5.8,0c3.2,2.4,3.2,8.8,0,14.4c-1.3,2.5-3.3,4.6-5.8,5.9c-2.1,1.1-4.2,1.1-5.8,0
		c-3.2-2.4-3.2-8.8,0-14.4C88.3,190.9,90.3,188.8,92.8,187.4z"></path><path class="st10" d="M92.7,153c9.2-4.7,18.4-5.1,25.4,0.1c1,0.8,1,2.8,0,4.6c-0.4,0.8-1.1,1.4-1.8,1.9c-0.6,0.4-1.3,0.4-1.8,0
		c-6-4.4-13.9-4.1-21.8-0.1S77,171.3,71,181.8c-0.4,0.8-1.1,1.5-1.8,1.9c-0.6,0.4-1.3,0.4-1.8,0c-1-0.8-1-2.8,0-4.6
		C74.3,166.8,83.5,157.7,92.7,153z"></path><path class="st10" d="M92.6,135.2c12.7-6.5,25.4-6.9,35.3,0.4c1.6,1.2,0.5,5.3-1.8,6.5c-0.6,0.4-1.3,0.4-1.8,0
		c-8.9-6.5-20.2-6.2-31.6-0.4S70,158.8,61.1,174.4c-0.4,0.8-1.1,1.4-1.8,1.9c-0.6,0.4-1.3,0.4-1.8,0c-1-0.7-1-2.8,0-4.6
		C67.2,154.4,79.9,141.7,92.6,135.2z"></path><path class="st10" d="M92.7,169.6c5.8-3,11.6-3.2,16,0.1c1.6,1.2,0.5,5.3-1.8,6.5c-0.6,0.4-1.3,0.4-1.8,0c-3.4-2.5-7.9-2.3-12.3,0
		s-8.9,6.7-12.3,12.7c-0.4,0.8-1.1,1.4-1.8,1.9c-0.6,0.4-1.3,0.4-1.8,0c-1-0.8-1-2.8,0-4.6C81.1,178.3,86.9,172.6,92.7,169.6z"></path></g><g id="online-store"><linearGradient id="SVGID_00000127046399059168734610000011610942070490081468_" gradientUnits="userSpaceOnUse" x1="189.9256" y1="86.6033" x2="240.0256" y2="152.9333" gradientTransform="matrix(1 0 0 -1 0 502)"><stop offset="0" style="stop-color: rgb(255, 183, 166); stop-opacity: 0;"></stop><stop offset="1" style="stop-color: rgb(224, 79, 79);"></stop></linearGradient><polyline points="
		301.9,396.5 245.9,433.5 130,365.4 191.7,331.7 	" style="opacity: 0.63; fill: url(&quot;#SVGID_00000127046399059168734610000011610942070490081468_&quot;);"></polyline><path class="st10" d="M244.6,65.4c21.9,13.7,77,45.6,95.8,57.1c4.3,2.6,4.9,6.5,5,11.5v233.2c-2.4,2.8-6.5,3.4-9.6,1.5l-92.5-52.3
		c-4.6-2.7-8.2-5.5-8.2-10.8l0.8-236C235.9,64.5,240.3,62.6,244.6,65.4z"></path><path class="st2" d="M236.1,67.9l30.1,17.4v6.5c0,1.1,0.6,2.1,1.5,2.7l23.3,13.4c1,0.6,2.2,0.2,2.8-0.7c0.2-0.3,0.3-0.7,0.3-1v-4.7
		l43.7,25.6c0.8,0.5,1.4,1.4,1.4,2.4v233.2c0,1-0.8,1.9-1.9,1.9c-0.3,0-0.7-0.1-1-0.3l-101.2-58.6c-0.4,3.7,1.4,7.3,4.5,9.3
		c5.2,3.4,97.4,55.5,97.4,55.5s7.3,3.3,9.4-5.4V130.4c0-3.1-1.5-6-4-7.8c-4.2-3.1-98.2-57.7-98.2-57.7S237.6,61.8,236.1,67.9z"></path><path class="st3" d="M219,116v21.3c0,0,0.6,5.8,6.4,7.1s6.6-6.3,6.6-6.3v-15.8L219,116z"></path><path class="st12" d="M231.5,124.4l0.5,22.5c0,0,0.6,5.8,6.4,7.1s6.6-6.3,6.6-6.3V132L231.5,124.4z"></path><path class="st3" d="M245,132.1v21.3c0,0,0.6,5.8,6.4,7.1s6.6-6.3,6.6-6.3v-15.8L245,132.1z"></path><path class="st12" d="M257.9,139.9v21.3c0,0,0.6,5.8,6.4,7.1s6.6-6.3,6.6-6.3v-15.7L257.9,139.9z"></path><path class="st3" d="M270.8,146.4v21.3c0,0,0.6,5.8,6.4,7.1s6.6-6.3,6.6-6.3v-15.8L270.8,146.4z"></path><path class="st12" d="M283.5,155.1v21.3c0,0,0.6,5.8,6.4,7.1s6.6-6.3,6.6-6.3v-15.8L283.5,155.1z"></path><path class="st3" d="M337.8,127c0,0,1.4,0.3,1.4,2.6v41.1l-33.5,19.2l4.7-29.3L337.8,127z"></path><path class="st13" d="M337.8,127c0,0,1.4,0.3,1.4,2.6v41.1l-33.5,19.2l4.7-29.3L337.8,127z"></path><path class="st3" d="M296.4,163.8V183c0,0,0.6,5.8,6.4,7.1s6.6-6.3,6.6-6.3l-0.3-12.6L296.4,163.8z"></path><path class="st7" d="M219,116v21.3c0,0,0.6,5.8,6.4,7.1s6.6-6.3,6.6-6.3v-15.8L219,116z"></path><path class="st7" d="M245,132.1v21.3c0,0,0.6,5.8,6.4,7.1s6.6-6.3,6.6-6.3v-15.8L245,132.1z"></path><path class="st7" d="M270.8,146.4v21.3c0,0,0.6,5.8,6.4,7.1s6.6-6.3,6.6-6.3v-15.8L270.8,146.4z"></path><path class="st7" d="M296.4,163.8V183c0,0,0.6,5.8,6.4,7.1s6.6-6.3,6.6-6.3l-0.3-12.6L296.4,163.8z"></path><path class="st12" d="M206,109.7v22.4c0,0,0.6,5.8,6.4,7.1s6.6-6.3,6.6-6.3v-15.8L206,109.7z"></path><path class="st7" d="M231.5,124.4l0.5,22.5c0,0,0.6,5.8,6.4,7.1s6.6-6.3,6.6-6.3V132L231.5,124.4z"></path><path class="st7" d="M257.9,139.9v21.3c0,0,0.6,5.8,6.4,7.1s6.6-6.3,6.6-6.3v-15.7L257.9,139.9z"></path><path class="st7" d="M283.5,155.1v21.3c0,0,0.6,5.8,6.4,7.1s6.6-6.3,6.6-6.3v-15.8L283.5,155.1z"></path><path class="st7" d="M206,109.7v22.4c0,0,0.6,5.8,6.4,7.1s6.6-6.3,6.6-6.3v-15.8L206,109.7z"></path><polyline class="st12" points="283.5,156.2 314.2,112.9 326,120.2 296.4,163.8 	"></polyline><polyline class="st12" points="257.9,141 289.2,98.2 300.9,105.4 270.8,148.7 	"></polyline><polyline class="st12" points="231.9,125.1 260.9,82.3 275.3,90.4 245,133.1 	"></polyline><polyline class="st12" points="206,109.7 236.1,67.9 247.8,74.7 218.9,117.3 	"></polyline><polyline class="st3" points="270.8,148.6 300.9,105.4 314.2,112.9 283.5,156.2 	"></polyline><polyline class="st3" points="245,133.1 275.3,90.4 289.2,98.2 257.9,140.9 	"></polyline><polyline class="st3" points="218.9,117.3 247.8,74.7 260.9,82.3 231.9,125.1 	"></polyline><polyline class="st3" points="309.1,171.2 337.8,127 326,120.2 296.4,163.8 	"></polyline><path class="st9" d="M259.2,225.6c0,0,4.8-9.7,4-10.6s-3.5,3-3.5,3s0-10-0.9-10.1s-1.3,6.2-1.3,6.2s-0.9-7.4-2.4-7.4s0,7.1,0,7.1
		s-2.6-4.4-3.4-4.1s1.3,5.9,1.3,5.9s-2.4-2-2.7-1.5s2.5,7.4,4.2,9.1c1.2,1.1,2.2,2.4,3,3.8"></path><path class="st6" d="M280.5,223.4c0.6,0.5-4.9-1.9-14.5,21.6c0,0-2.5-11.2-3.4-18.6c-2.5-1.8-5.6-2.5-8.6-1.9
		c-0.1,5.5-0.3,26.8,5.6,30c6.9,3.6,14.1,4.1,18.1-5.3C277.8,249.1,290.9,228.5,280.5,223.4z"></path><path class="st14" d="M280.5,223.4c0.6,0.5-4.9-1.9-14.5,21.6c0,0-2.5-11.2-3.4-18.6c-2.5-1.8-5.6-2.5-8.6-1.9
		c-0.1,5.5-0.3,26.8,5.6,30c6.9,3.6,14.1,4.1,18.1-5.3C277.8,249.1,290.9,228.5,280.5,223.4z"></path><path class="st6" d="M301.5,249.8l0.6,0.9c2.1-8,2.5-17.6-1.6-24.6c-3.7-1.5-7.7-1.7-8.4-2.5l-10.6-0.4c-1.1,0-2.1,0.4-2.7,1.3
		c-2.7,3.6-9.2,13.6-7,22.5c2.8,11.1,1.9,19.6,2.1,27.7s-9.7,26.7-8.5,38.7s36.7,19.4,38.3,12.4c5.7-25.3,6.6-38.6,1.6-49.6
		S301.5,249.8,301.5,249.8z"></path><path class="st6" d="M300.6,226c0,0,7.1,3,10.4,17.5s4.8,17-8.7,25.8s-12,7.7-12,7.7s-7.8-4.6-6.3-7.5s17.5-10.5,17-15.5
		s-7.9-10.5-7.9-10.5"></path><path class="st15" d="M299.4,246.2c-0.1-0.4-0.6-0.6-1-0.4c-0.3,0.1-0.5,0.5-0.5,0.8c0.7,2,1.3,4.1,1.6,6.2
		c0.3,3.8-1.3,5.8-4.2,7.8c-3,2-6.2,3.6-9.5,5c-0.3,0.1-0.5,0.5-0.4,0.8c-0.3,0.2-0.4,0.5-0.3,0.8c0.9,3,1.9,6,4.1,8.3
		c0.2,0.2,0.4,0.3,0.6,0.2c0.2,0.3,0.5,0.5,0.8,0.4c3.1-0.6,6-1.9,8.6-3.7c0.8-0.5,0-1.9-0.8-1.3c-2.4,1.7-5.2,2.9-8.1,3.5
		c0-0.1-0.1-0.1-0.1-0.2c-2-2.1-2.9-4.8-3.7-7.5c4.7-2.1,9.7-4.3,13.2-8.1C303,255.2,300.6,250.4,299.4,246.2z"></path><path class="st16" d="M230,251.5c0.6,0.4,109.1,63,109.1,63l-37.6,22.2l-110.9-62.8L230,251.5z"></path><path class="st9" d="M285.1,267.2c0,0-4.6,2.3-7.1,2.7s-4.7-1.9-5.5-0.8s3.7,1.6,2.6,2.4s-3.9,1.3-4.8,3s-1.9,4.6,0.6,6.3
		s6.1-1.7,8.5-3.1s7.5-5.3,7.5-5.3S286.3,268.4,285.1,267.2z"></path><polygon class="st16" points="301.5,336.7 301.5,398.6 339.1,374.9 339.1,314.5 	"></polygon><polygon class="st8" points="301.5,336.7 301.5,398.6 339.1,374.9 339.1,314.5 	"></polygon><polygon class="st16" points="190.6,273.9 190.6,331 301.5,398.6 301.5,336.7 	"></polygon><polygon class="st7" points="190.6,273.9 190.6,331 301.5,398.6 301.5,336.7 	"></polygon><path class="st9" d="M283.8,219.7c0,0-0.1,4.2-1.2,6.3s3,2.9,6.4,1.9s1.8-9,1.8-9"></path><path class="st3" d="M278.2,207.6c0,0-4.1,11.3-1,13.1s10.8,0,10.8,0"></path><path class="st9" d="M277.3,205.2c0,0-1.5,16,6.9,17.4s10-15.1,8.3-17.4S279.5,201.5,277.3,205.2z"></path><path class="st3" d="M288,217.1c-0.5,2-0.2,4.2,0.9,6c3.4,0.8,7,0.6,10.4-0.6c4.5-10.3-0.1-26-10.9-27.1s-12.5,5.1-13.1,8.8
		s2,3.4,3.1,3.3C287.5,207,289.9,211.3,288,217.1z"></path><path class="st6" d="M231.8,280.2v-14.7l13.1-7.3v14.5L231.8,280.2z"></path><path class="st7" d="M231.8,280.2v-14.7l13.1-7.3v14.5L231.8,280.2z"></path><path class="st6" d="M231.8,265.6l-12.8-7.3c0,0-0.4,14.8,0,15s12.8,7,12.8,7L231.8,265.6z"></path><polygon class="st6" points="219,258.2 231.8,250.4 244.9,258.2 231.8,265.6 	"></polygon><polygon class="st8" points="219,258.2 231.8,250.4 244.9,258.2 231.8,265.6 	"></polygon><polygon class="st9" points="223.9,255.3 237.2,262.6 237.2,270.2 241,268.3 241,260.4 227.7,252.9 	"></polygon></g><g id="bag"><linearGradient id="SVGID_00000161609984696501078940000015577898424977422250_" gradientUnits="userSpaceOnUse" x1="45.8204" y1="188.5695" x2="66.4404" y2="203.1595" gradientTransform="matrix(1 0 0 -1 0 502)"><stop offset="0" style="stop-color: rgb(255, 255, 255); stop-opacity: 0;"></stop><stop offset="1" style="stop-color: rgb(224, 79, 79);"></stop></linearGradient><path d="
		M54.1,317.9l44.7-26.4l-32.1-2.3l-32.1,16.6C39.7,309.3,49,314.5,54.1,317.9z" style="opacity: 0.63; fill: url(&quot;#SVGID_00000161609984696501078940000015577898424977422250_&quot;);"></path><g id="shopping-bag"><path class="st4" d="M72.4,226.1c-10.2,0.7-9.7,17.2-10.4,24.1c-0.2,1.7,2.5,2.3,2.6,0.6c0.6-5.7,0.2-13.4,3.4-18.5
			c1-1.6,2.2-3.1,4.2-3.2c1.2,0,2.4,0.4,3.3,1.3c0.9,0.8,1.4,4,1.5,4.9c0.5,3.5,0.6,7.1,0.2,10.7c-0.2,1.7,2.5,2.3,2.7,0.6
			C80.5,241.2,81.6,225.5,72.4,226.1z"></path><polyline class="st3" points="87.7,237.2 90.8,242.3 96.9,243.6 92.3,259.5 79.3,251 		"></polyline><polyline class="st13" points="87.7,237.2 90.8,242.3 96.9,243.6 92.3,259.5 79.3,251 		"></polyline><polygon class="st3" points="56.2,254.6 87.7,237.2 86.7,263 62.6,265.4 		"></polygon><polygon class="st12" points="67.5,258.4 72.4,307.3 101.8,289.7 96.9,243.6 		"></polygon><polygon class="st12" points="67.5,258.4 64.2,254.6 56.2,254.6 52.9,297.4 61.5,301.3 72.4,307.3 		"></polygon><polygon class="st7" points="67.5,258.4 64.2,254.6 56.2,254.6 52.9,297.4 61.5,301.3 72.4,307.3 		"></polygon><path class="st4" d="M85.6,234.3c-10.2,0.1-10.7,16.6-11.8,23.4c-0.3,1.7,2.3,2.4,2.6,0.7c0.9-5.7,1-13.4,4.5-18.2
			c1.4-2,3.9-3.6,6.4-2.4c2.2,1.2,2.2,3.8,2.4,5.9c0.3,3.6,0.2,7.2-0.5,10.7c-0.3,1.7,2.3,2.5,2.6,0.7
			C92.8,249.8,94.7,234.2,85.6,234.3z"></path></g></g></svg>